<?xml version="1.0" ?><svg id="Layer_1" style="enable-background:new 0 0 254.088 235.506;" version="1.1" viewBox="0 0 254.088 235.506" xml:space="preserve" xmlns="http://www.w3.org/2000/svg" xmlns:xlink="http://www.w3.org/1999/xlink"><g><ellipse cx="48.863" cy="22.498" rx="22.493" ry="22.495" transform="matrix(0.2268 -0.9739 0.9739 0.2268 15.8698 64.9859)"/><path d="M19.359,70.201c-1.319-2.429-1.612-5.188-0.839-7.8c0.771-2.612,2.516-4.768,4.909-6.067   c1.49-0.814,3.175-1.242,4.866-1.242c3.71,0,7.132,2.016,8.93,5.262c0.069,0.118,0.163,0.27,0.3,0.483   c0.298,0.459,0.803,1.194,1.536,2.126c0.888,1.128,2.187,2.629,3.906,4.266c1.233-9.085-2.571-18.664-10.139-20.55   c-8.537-2.129-20.912,2.508-25.947,17.15c-6.805,20.174-8.268,33.305-5.682,55.519c2.112,10.871,7.83,15.151,14.142,16.752   c2.547,8.388,5.723,22.193,5.7,38.757c-0.002,13.218-1.977,28.171-7.765,43.8c-2.395,6.475,0.908,13.666,7.382,16.064   c1.432,0.53,2.897,0.781,4.34,0.781c5.08,0,9.857-3.12,11.724-8.163c6.955-18.781,9.322-36.775,9.32-52.481   c-0.031-25.049-5.913-44.315-9.091-52.939c-1.388-10.376-0.164-21.795,1.624-32.299c-1.848-1.195-3.521-2.398-4.996-3.563   C24.705,79.073,20.451,72.155,19.359,70.201z"/><path d="M96.32,81.036c-0.09,0.015-0.18,0.021-0.271,0.039c-6.129,1.2-11.66,1.706-16.654,1.706   c-16.765-0.033-27.58-5.598-34.57-11.038c-3.477-2.725-5.939-5.445-7.49-7.416c-0.776-0.984-1.323-1.781-1.652-2.29   c-0.165-0.254-0.276-0.437-0.334-0.536c-0.008-0.013-0.015-0.024-0.021-0.034c-0.021-0.039-0.027-0.05-0.027-0.05v0   c-2.128-3.843-6.958-5.256-10.82-3.152c-3.882,2.11-5.319,6.967-3.207,10.849h-0.002c0.362,0.648,4.386,7.911,13.674,15.216   c9.223,7.289,23.906,14.453,44.297,14.453c0.052,0,0.103,0,0.153,0c6.079,0,12.649-0.62,19.728-2.007   c3.059-0.598,5.359-2.868,6.155-5.673C101.691,88.352,98.643,84.935,96.32,81.036z"/><path d="M239.955,143.838h-43.339c-1.78-5.14-5.911-9.703-14.74-12.166c-17.816-3.539-29.873-3.936-44.84-1.191v19.194   c0,5.626-4.576,10.202-10.201,10.202c-5.623,0-10.201-4.576-10.201-10.202v-12.608c-7.896,5.393-10.812,13.78-9.728,20.311   c1.399,8.439,12.383,13.111,22.323,11.463h98.525l1.336,54.472c0.164,6.797,5.729,12.195,12.489,12.195   c0.105,0,0.208-0.001,0.313-0.004c6.901-0.169,12.358-5.9,12.191-12.802l-1.634-66.668   C252.282,149.245,246.743,143.838,239.955,143.838z"/><ellipse cx="79.703" cy="148.196" rx="22.5" ry="22.499" transform="matrix(0.997 -0.078 0.078 0.997 -11.319 6.67)"/><rect height="13" width="162.501" x="56.826" y="177.006"/><path d="M118.835,149.674c0,4.419,3.58,8.002,8,8.002c4.418,0,8.002-3.583,8.002-8.002v-52.17c-2.574,0.596-5.25,0.921-8.002,0.921   c-2.752,0-5.427-0.325-8-0.92V149.674z"/><path d="M126.837,94.656c17.523,0,31.73-14.206,31.73-31.73c0-17.524-14.207-31.73-31.73-31.73s-31.73,14.206-31.73,31.73   C95.107,80.45,109.314,94.656,126.837,94.656z M114.271,62.926c0-6.94,5.625-12.566,12.566-12.566   c6.941,0,12.566,5.626,12.566,12.566c0,6.94-5.625,12.566-12.566,12.566C119.896,75.492,114.271,69.866,114.271,62.926z"/><circle cx="126.837" cy="62.926" r="9.425"/></g></svg>