<?xml version="1.0" encoding="utf-8"?>
<!-- Svg Vector Icons : http://www.onlinewebfonts.com/icon -->
<!DOCTYPE svg PUBLIC "-//W3C//DTD SVG 1.1//EN" "http://www.w3.org/Graphics/SVG/1.1/DTD/svg11.dtd">
<svg version="1.1" xmlns="http://www.w3.org/2000/svg" xmlns:xlink="http://www.w3.org/1999/xlink" x="0px" y="0px" viewBox="0 0 1000 1000" enable-background="new 0 0 1000 1000" xml:space="preserve">
<metadata> Svg Vector Icons : http://www.onlinewebfonts.com/icon </metadata>
<g><g transform="translate(0.000000,511.000000) scale(0.100000,-0.100000)"><path d="M5387.6,4484.6c-57.5-19.2-126.5-47.9-153.3-63.3c-28.8-15.3-132.3-30.7-258.7-38.3c-251.1-13.4-385.3-65.2-529-208.9c-109.2-109.3-159.1-203.2-189.7-356.5c-26.8-132.3-3.8-289.4,59.4-414c21.1-40.2,36.4-109.2,36.4-153.3c0-111.2,46-414,103.5-695.8c24.9-126.5,51.8-285.6,59.4-354.6c17.3-162.9,88.2-391,187.8-599.9c65.2-141.8,74.8-172.5,49.8-187.8c-40.2-24.9-189.7-21.1-481.1,15.3c-283.7,36.4-465.8,21.1-594.2-44.1c-55.6-28.8-59.4-28.8-88.2,15.3c-222.3,316.3-709.2,511.8-1094.4,440.8l-103.5-19.2l11.5,233.8c13.4,264.5,53.7,502.2,103.5,603.8l34.5,69l565.4,9.6l565.4,9.6l90.1,51.8c191.7,115,279.8,297.1,254.9,538.6c-24.9,266.4-141.8,458.1-308.6,507.9c-55.6,15.3-256.8,23-661.3,23c-657.4,0-636.3,3.8-851-157.2c-161-118.8-971.8-900.8-1240.1-1197.9C358.3,1854.9,65,1356.6,103.3,1065.3c15.3-115,224.3-517.5,366.1-707.3c243.4-323.9,622.9-638.3,992.8-824.2c450.4-226.2,987.1-358.4,1596.6-392.9l218.5-13.4l172.5-231.9c93.9-128.4,224.3-291.3,291.3-362.3L3860-1597l46-339.3c24.9-185.9,61.3-456.2,80.5-598l34.5-256.8l-63.3-149.5c-145.7-341.2-233.8-703.4-251.1-1031.2c-9.6-207-7.7-224.3,32.6-272.2l40.2-53.6h1385.7h1385.8l38.3,42.1c28.8,30.7,44.1,82.4,53.7,176.4c23,220.4,113.1,425.5,239.6,538.6c40.2,36.4,76.7,38.3,1148.1,49.8c1222.9,11.5,1217.1,11.5,1489.3,141.8c153.3,74.8,274.1,180.2,337.3,300.9c42.2,78.6,44.1,101.6,42.2,446.6c-7.7,918.1-203.2,1644.5-548.2,2031.7c-65.2,74.7-111.2,143.8-111.2,170.6c0,59.4-78.6,285.6-143.8,414c-184,366.1-557.7,820.3-900.8,1094.4c-228.1,184-615.3,417.8-1153.8,701.5c-373.8,197.4-389.1,214.7-394.8,440.8c-1.9,90.1,9.6,207,30.7,293.3c46,187.8,47.9,582.7,3.8,795.4c-109.3,544.3-366.1,944.9-713,1115.5C5824.6,4524.9,5552.5,4538.3,5387.6,4484.6z M5840,4153c111.2-51.7,272.2-230,356.5-392.9c122.7-233.8,172.5-437,182.1-755.2c9.6-245.3,5.7-300.9-32.6-450.4c-36.4-141.8-40.2-199.3-30.7-331.6c30.7-362.3,124.6-477.3,592.2-714.9c624.9-316.3,998.6-561.6,1286.1-839.5c419.7-410.2,737.9-933.4,739.8-1217.1c0-42.2,32.6-88.2,134.2-195.5c220.4-233.8,354.6-557.8,438.9-1063.8c42.2-254.9,78.6-680.4,78.6-925.8V-2885l-80.5-80.5c-92-90.1-231.9-151.4-421.7-182.1c-70.9-11.5-548.2-19.2-1165.3-19.2H6873.1l-97.7-57.5c-189.8-107.3-352.7-346.9-423.6-619.1l-34.5-128.4H5171.1H4024.9l11.5,90.1c42.2,302.8,136.1,622.9,260.7,898.9c69,153.3,70.9,103.5-30.7,831.8c-36.4,258.8-70.9,519.4-78.6,582.7c-11.5,107.3-19.2,120.8-157.2,268.3c-138,149.5-341.2,410.2-483,619.1c-36.4,55.6-88.2,107.3-115,118.8c-26.8,9.6-168.7,23-316.3,28.8C1847.5-481.5,931.3,32.2,505.8,927.3c-82.4,176.3-86.2,185.9-65.2,270.3c67.1,264.5,345,655.5,849.1,1190.3c279.8,297.1,973.7,964.1,1113.6,1069.5l113.1,84.3h542.4c467.7,0,548.2-3.8,573.1-30.7c40.3-40.3,57.5-109.2,57.5-243.4c1.9-99.7-3.8-116.9-51.7-159.1l-53.7-46h-521.3c-299,0-552-9.6-592.3-19.2c-260.7-72.8-369.9-400.6-408.3-1211.3c-13.4-295.2,1.9-356.5,103.5-398.7c51.8-21.1,72.8-19.2,159.1,17.2c55.6,21.1,147.6,49.8,205.1,61.3c343.1,72.8,795.4-159.1,837.6-427.4c24.9-147.6,172.5-195.5,295.2-93.9c161,132.2,291.3,155.3,599.9,109.3c113.1-17.3,277.9-30.7,364.2-30.7c134.2,0,174.4,7.7,274.1,55.6c69,32.6,143.7,86.3,185.9,136.1c97.7,113.1,99.7,176.3,15.3,297.1c-130.3,184-235.7,473.4-268.3,732.2c-11.5,82.4-38.3,235.7-59.4,341.2c-53.7,254.9-95.8,552-95.8,676.6c0,70.9-15.3,130.3-49.8,201.3c-105.4,205.1-47.9,402.5,145.7,507.9c80.5,42.2,99.7,44.1,268.3,34.5c153.3-9.6,191.7-5.8,230,21.1C5441.3,4191.4,5690.5,4225.9,5840,4153z"/><path d="M4925.7,906.2c-69-36.4-101.6-132.2-69-197.4c23-49.8,53.7-74.8,253-191.7l105.4-63.3l-145.7-138c-270.2-253-500.2-592.3-575-847.2c-46-159.1-40.3-356.5,11.5-496.4c90.1-237.7,400.6-456.2,745.6-523.3c283.7-55.6,611.4,11.5,985.2,205.1l178.3,90.1l63.3-92c90.1-132.2,272.2-325.8,385.2-412.1c51.8-40.3,90.1-78.6,80.5-86.3c-23-24.9-433.2-178.3-722.6-272.2c-366.1-118.8-680.4-199.3-856.8-222.3c-178.3-21.1-285.6-76.7-429.3-224.3c-189.7-193.6-423.6-582.7-532.8-885.5c-72.8-207-63.3-289.4,40.2-345c109.2-59.4,203.2,7.7,247.3,178.3c53.7,214.7,325.8,672.8,509.8,858.7c69,69,103.5,90.1,151.4,90.1c247.3,0,1370.4,346.9,1830.4,567.3c322,151.4,362.3,289.4,126.5,429.3c-258.8,151.4-498.3,389.1-644,640.2c-67.1,113.1-126.5,164.8-195.5,164.8c-17.3,0-124.6-49.8-237.7-113.1c-421.7-228.1-655.5-295.2-891.3-254.9c-220.4,36.4-454.3,172.5-513.7,297.1c-44.1,92-40.3,256.8,7.7,385.3c92,247.2,387.2,605.7,651.7,789.7c80.5,57.5,153.3,116.9,159.1,134.2c24.9,63.2,9.6,124.6-47.9,189.8c-95.8,109.3-521.3,375.7-596.1,373.8C4987.1,933,4952.5,921.5,4925.7,906.2z"/></g></g>
</svg>