<?xml version="1.0" encoding="utf-8"?>
<!-- Svg Vector Icons : http://www.onlinewebfonts.com/icon -->
<!DOCTYPE svg PUBLIC "-//W3C//DTD SVG 1.1//EN" "http://www.w3.org/Graphics/SVG/1.1/DTD/svg11.dtd">
<svg version="1.1" xmlns="http://www.w3.org/2000/svg" xmlns:xlink="http://www.w3.org/1999/xlink" x="0px" y="0px" viewBox="0 0 1000 1000" enable-background="new 0 0 1000 1000" xml:space="preserve">
<metadata> Svg Vector Icons : http://www.onlinewebfonts.com/icon </metadata>
<g><path d="M543.8,221.3c3.7-3.2,7.8-0.3,7.8-0.3s4-5.8,10.9-14.1c6.9-8.3,25-21,43.2-25.3c18.1-4.3,50.5-24.1,63.5-29.4c13-5.4,30.7-14.6,37.6-21.1c6.9-6.5,38.8-18.4,59.1-23.8c20.3-5.4,62.1-21.6,68.3-23.5c6.2-1.9,9.6-9.1,11.2-12.8c1.6-3.7,9.6-8.1,9.6-8.1s1.3-6.9,1.3-12.4c0-5.5,3-15.1,5.2-18c2.2-2.9,6.5-5.6,6.6-7.9c0.1-2.3,4.6-4.3,4.6-4.3s0.6-1.4,2.2-4.2c1.6-2.7,4.5-1.4,4.5-1.4s1.2-3,4-3.7c2.9-0.7,5,0.4,5,0.4s1.4-2.4,4-0.7c2.6,1.7,2,3.2,2,3.2s7.5-2.1,9,3.5c1.5,5.6-8.2,12.9-11.3,20c-3.1,7.1,0.2,19.2,0.2,19.2s3.5,2.3,4.6,4c1.1,1.7,4.8,0.4,8.1,4c3.3,3.6,1.7,9.8,1.7,9.8s2.5-0.4,2.5,3.5c0,3.8-1.7,6.1-1.7,6.1s1.5,2.1,1.5,6.7c0,4.6-5,13.3-5,13.3s3,13.9,3.3,31.2c0.3,17.3,9.8,54.8,13.3,66.3c3.5,11.5,15.7,65.8,17.6,75.6c1.9,9.8,4.2,25.7,5,29.6c0.8,3.8,1.5,25.1-1.3,29.9c-2.9,4.8-9.6,14.6-16.3,20.7c-6.7,6.1-17.1,20.1-17.7,20.1c-0.6,0,1.3,7.5,2.5,14.2c1.1,6.7,3.3,23.6,5.2,34.9c1.9,11.3,7.1,43.4,4.4,47c-2.7,3.6-1.9,8.4-2.3,17.1c-0.4,8.6-6.9,4.8-8.4,6c-1.5,1.1-4.6,1.1-5.9-2.3c-1.4-3.5-1.7-2.3-4.6-2.9c-2.9-0.6-7.5-4.6-8.1-8.5c-0.6-3.8-2.7-2.5-5.9-2.7c-3.3-0.2-5.8-2.7-5.8-4.2c0-1.5-1.5-1.5-7.7-2.5c-6.1-1-10.8-4.2-8.5-8.3c2.3-4-18.7,0.6-31.1,2.9c-12.4,2.3-56.4,4.9-56.4,4.9c6.3,10.4,1.4,23.9,1.4,23.9s31.1,267.7,31.7,277.3c0.6,9.6-13.1,7.5-13.1,7.5s-0.2,4.4-0.4,10.5c-0.2,6.1-14.8,4.4-14.8,4.4s0,3.1,1.2,6.9c1.1,3.8-29.4,21.9-29.4,21.9s-0.6,2.9-0.6,10.4s-13.8,43.9-20.3,62c-6.5,18-8.1,38.2-8.1,47.8c0,9.6,4.6,22.8,4,29.4c-0.6,6.5-12.7,8.1-18.4,7.3c-5.7-0.7-20.1,0.6-28,2.1c-7.9,1.5-34.9,3.8-39.9,5c-5,1.1-10.4-1.8-14.3-1.4c-3.9,0.4-4.8,2.4-7.6,2.1c-2.8-0.3-5-2.1-5-2.1s-0.9,3.1-5.4,1.9c-4.5-1.2-4-3.1-4-3.1s-1.3,2.2-4.7,1.4c-3.4-0.9-3.4-2.6-3.4-2.6s-2,1.8-4.4,0.2c-2.4-1.6,0-3,0-3c-4-0.1-4.7-3.2-4.3-5.5c0.4-2.3,4-4.9,6.6-2.8c2.6,2.2,5.8-1.2,12.7-3.9c6.9-2.7,18-10.7,39.1-19.2c21.1-8.4,27.6-30.7,31.7-44.5c4-13.8,2.6-61.3,2.6-61.3l-4-0.3c0,0,2.2-21.3,0.7-32.1c-1.5-10.8,0.2-45.1,3.6-58.9c3.5-13.8,0-19-7.5-30.5c-7.5-11.5-5-52.2-16.5-79.1c-11.5-26.9-19.8-85.3-20.3-90.8c-0.6-5.5-0.9-8.1,1.4-10.6c2.3-2.6-2.3-3.2-6.6-8.3c-4.3-5.2-6.6-11.2-6.6-11.2s-7.5,0-9.8-5.5c-2.3-5.5-13.2-4.9-23.6-8.6c-10.4-3.7-26.5-17-34.8-26.8c-8.4-9.8-21.6-21-32.5-26.5c-10.9-5.5-26.2-22.5-33.1-28.8c-6.9-6.3-21.3-18.7-29.7-26.2c-8.3-7.5-10.4-32-10.4-32s-10.9-13.8-17.8-19.9c-6.9-6-20.7-13.5-30.8-14.4c-10.1-0.9-46.6-17-56.1-24.2c-9.5-7.2-48.9-34-54.1-37.1c-5.2-3.2-41.7-11.2-53-12.7c-11.2-1.4-51.8-14.7-68.8-23.9c-17-9.2-22-8.6-27.3-6.8c-5.3,1.9-19-0.7-25.5-0.9c-6.5-0.1-12.5,0.9-19.4,3.3c-6.9,2.4-20.6,3.3-21.6,0.3c-1-3,9.6-4.6,15.7-6.9c6-2.3,10.2-5.2,9.8-6.8c-0.4-1.6-6.3-0.2-10.1-0.2c-3.7,0-12.7-0.1-18.1,1.2c-5.5,1.3-14.1,1.3-14.4-1.4c-0.3-2.7,1.4-4.9,7.1-5.2c5.6-0.3,21-4.3,27.3-4.8c6.3-0.4-1-1.6-5.2-1.6c-4.2,0-11.9,0.4-18.8,2.4c-6.9,2-12.7,1.5-13.2-1.1c-0.6-2.6,2.4-5.2,11.5-7.2c9.1-2,19.9-4.2,25.3-4.3c5.5-0.1,1.4-2.3-1.6-2.3c-3,0-9.6-1.9-15.8-1.9c-6.2,0-16.5,2.8-16.5-4.5c0-7.3,45.5-3.5,54.9-3.5c9.4,0,37,11.9,45.5,13.8c8.4,1.9,21.9,3.8,31.3,6.5c9.4,2.7,58.3,8.4,70.6,8.3c12.3-0.2,33.6,7.9,45.5,15.5c11.9,7.7,53.2,19.8,63.9,23.6c10.8,3.8,30.7,6.1,43.2,6.7c12.5,0.6,30.7,13.1,30.7,13.1s2.1-2.3,5.6-2.9c3.5-0.6,9.8-6.2,12.1-8.6c2.3-2.5,2.5-4,1.3-5.9c-1.1-1.9-2.3-8.1-2.3-8.1s-20.3-0.6-29.9,1.3c-9.6,1.9-13.2-9.4-12.1-14.6c1.2-5.2-2.5-6.5-4.8-8.3c-2.3-1.7-2.9-1.7,0-3.8c2.9-2.1,0-2.1-2.1-3.1c-2.1-1-1-3.3,1.4-8.4c2.3-5.2-5.8-2.9-8.4-4.6c-2.7-1.7,1.5-12.5,4.2-19.2c2.7-6.7-0.8-12.3-1-23.4c-0.2-11.1,10.7-29.6,10.7-29.6s0.2-4.2,4.4-9.6c4.2-5.4,30.1-13.4,53.1-14c23-0.6,32.1,12.5,32.1,12.5c5.8-6,8.8-1.8,8.8-1.8s3.7-6.3,10.4-3.2c6.6,3.2,15.5,4.6,18.1,27.9C548.7,168.7,542.4,222.6,543.8,221.3 M843.3,117.8c-3.3-2.7-28,12.5-36.5,17.5c-8.4,5-40.3,21.9-47.4,23.8c-7.1,1.9-39.4,15-42.6,17.1c-3.3,2.1-25.9,33.4-38.2,47.4c-12.3,14-51,29.4-55.3,31.7c-4.2,2.3-3.6,4.6-1.5,8.8c2.1,4.2,0.4,16.1,0.4,16.1s4,2.1-0.6,9.8c-4.6,7.7,5,9.6,4.4,11.1c-0.6,1.5-1.9,3.3,1.7,6.5c3.6,3.3,3.6,7.5,1.7,12.5c-1.9,5,0.6,3.6,4.8,6.1c4.2,2.5,6.1,10.4,5.2,13.4c-1,3.1,4.2,5.6,7.1,5.8c2.9,0.2,4,0.2,5.6,2.7c1.5,2.5,5.2-3.4,9.2-7.3c4-3.8,8.3-3.6,8.3-3.6s12.5-2.7,21.7-2.9c9.2-0.2,24.4,5.6,28.4,8.8c4,3.3,3.5,0.6,10,2.5c6.5,1.9,10.4,1.4,14.2-1.3c3.8-2.7,8.8,0.4,12.9-2.9c4-3.3,5.2,0.6,11.9-3.3c6.7-3.8,32.2-8.3,40.5-11.1c8.3-2.9,19.6-8.2,24.4-10.7c4.8-2.5,10.9-1.3,13.2-5.4c2.3-4,15.2-5.6,17.5-5c2.3,0.6,1.9-1.2,0.4-5c-1.5-3.8,1.2-4.8-0.8-9c-1.9-4.2,1.9-4.2,0.2-7.7c-1.7-3.5,2.7-4,2.7-4s-3.7-14.6-6.4-29.8c-2.7-15.2,3.4-57.6,3.8-70.6c0.4-13.1,0.8-40.1-0.6-43c-1.3-2.9-3.3-1-11.9-4.2C843.1,129.3,843.3,117.8,843.3,117.8"/></g>
</svg>